# xmcd
#
# Track frame offsets:
#	150
#	15721
#	39516
#	57869
#	75149
#	98595
#	118674
#	137380
#	153956
#	172649
#	194126
#	213062
#	242175
#
# Disc length: 4440 seconds
#
# Revision: 0
# Processed by: cddbd v1.5.2PL0 Copyright (c) Steve Scherf et al.
# Submitted via: EasyCDDAExtractor 8.2.1.1
#
DISCID=9511560d
DTITLE=shannon mcnally - geronimo
DYEAR=2005
DGENRE=country
TTITLE0=the worst part of a broken heart
TTITLE1=miracle mile
TTITLE2=sweet forgiveness
TTITLE3=geronimo
TTITLE4=pale moon
TTITLE5=the hard way
TTITLE6=beautiful and strange
TTITLE7=tennessee blues
TTITLE8=weathervane
TTITLE9=leave your bags by the door
TTITLE10=in the name of us, honey
TTITLE11=lovin' in my baby's eyes
TTITLE12=data
EXTD=
EXTT0=
EXTT1=
EXTT2=
EXTT3=
EXTT4=
EXTT5=
EXTT6=
EXTT7=
EXTT8=
EXTT9=
EXTT10=
EXTT11=
EXTT12=
PLAYORDER=
